<?xml version="1.0" standalone="no"?><!DOCTYPE svg PUBLIC "-//W3C//DTD SVG 1.1//EN" "http://www.w3.org/Graphics/SVG/1.1/DTD/svg11.dtd"><svg t="1495850313329" class="icon" style="" viewBox="0 0 1024 1024" version="1.1" xmlns="http://www.w3.org/2000/svg" p-id="3453" xmlns:xlink="http://www.w3.org/1999/xlink" width="200" height="200"><defs><style type="text/css"></style></defs><path d="M302.08 414.72l-71.68 71.68L460.8 716.8l512-512-71.68-71.68L460.8 573.44 302.08 414.72zM921.6 512c0 225.28-184.32 409.6-409.6 409.6S102.4 737.28 102.4 512 286.72 102.4 512 102.4c40.96 0 76.8 5.12 112.64 15.36l81.922008-81.92C645.12 15.36 578.56 0 512 0 230.4 0 0 230.4 0 512s230.4 512 512 512 512-230.4 512-512L921.6 512z" p-id="3454" fill="#84de1e"></path></svg>